<svg stroke="currentColor" fill="currentColor" stroke-width="0" viewBox="0 0 24 24" xmlns="http://www.w3.org/2000/svg"><path d="M12 2c5.523 0 10 4.477 10 10s-4.477 10-10 10-10-4.477-10-10 4.477-10 10-10zm0 2c-4.418 0-8 3.582-8 8s3.582 8 8 8 8-3.582 8-8-3.582-8-8-8zm4.5 5c.828 0 1.5.672 1.5 1.5s-.672 1.5-1.5 1.5-1.5-.672-1.5-1.5.672-1.5 1.5-1.5zm-8.883 2.5c.346-1.018 1.437-2.5 2.883-2.5s2.5 1.5 2.5 3c0 2.071-2.009 4.161-2.5 4.5v-2.5c.5-.339 2.5-1.929 2.5-2 0-.552-1-2-1.5-2s-1.5 1-1.5 3c0 .552.448 1 1 1h.5c-.298 1.139-1.5 2-1.5 2s-1.5-1.391-1.5-2.5c0-1.06.84-2.5 2.117-2.5zm-2.117 4.5c.828 0 1.5.672 1.5 1.5s-.672 1.5-1.5 1.5-1.5-.672-1.5-1.5.672-1.5 1.5-1.5z"></path></svg>