<svg stroke="currentColor" fill="currentColor" stroke-width="0" viewBox="0 0 512 512" xmlns="http://www.w3.org/2000/svg"><path d="M256 32C132.3 32 32 134.9 32 261.7c0 101.5 64.2 187.5 153.2 217.9a12.1 12.1 0 0015.3-11.4V145.8a12.1 12.1 0 00-15.3-11.4C132.3 162.1 32 201.2 32 261.7c0 53 43 96 96 96s96-43 96-96-43-96-96-96-96 43-96 96c0 30.1 14.2 57.8 37.9 76.5a12.1 12.1 0 0016.3-17.2C64.9 299.8 48 279.6 48 256c0-30.9 25.1-56 56-56s56 25.1 56 56-25.1 56-56 56-56-25.1-56-56c0-11.8 3.7-22.9 10.2-32.1a12.1 12.1 0 00-15.3-17.2C37.2 218.4 32 234.1 32 251.2 32 311.7 80.5 360.2 141 360.2s109-48.5 109-109-48.5-109-109-109-109 48.5-109 109c0 7.5 1 14.9 2.5 22.1a12.1 12.1 0 0015.3 9.4c1.2-.4 2.3-.9 3.4-1.5 29.1-13.4 51.4-38.9 59.9-70.1a12.1 12.1 0 00-15.3-13.9c-35.3 16.3-60.8 49.3-60.8 88.6 0 53 43 96 96 96s96-43 96-96-43-96-96-96-96 43-96 96z"></path></svg>