<svg stroke="currentColor" fill="currentColor" stroke-width="0" viewBox="0 0 24 24" xmlns="http://www.w3.org/2000/svg"><path d="M24 4.557c-.883.392-1.832.656-2.828.775 1.017-.609 1.798-1.574 2.165-2.724-.951.564-2.005.974-3.127 1.195-.897-.957-2.178-1.555-3.594-1.555-3.179 0-5.515 2.966-4.797 6.045-4.091-.205-7.719-2.165-10.148-5.144-1.29 2.213-.669 5.108 1.523 6.574-.806-.026-1.566-.247-2.229-.616v.064c0 2.296 1.634 4.208 3.807 4.649-.69.188-1.452.23-2.224.084.618 1.945 2.404 3.358 4.533 3.394-1.728 1.354-3.886 2.16-6.225 2.16-.414 0-.824-.024-1.228-.072 2.196 1.418 4.813 2.24 7.648 2.24 9.135 0 14.28-7.765 13.998-14.634.962-.695 1.797-1.562 2.457-2.548z"></path></svg>